# xmcd
#
# Track frame offsets:
#	150
#	12247
#	27020
#	40820
#	56810
#	69972
#	84240
#	99052
#	113497
#
# Disc length: 1721
#
# Revision: 3
# Processed by: cddbd v1.5.1PL0 Copyright (c) Steve Scherf et al.
# Submitted via: CDValet v3.31 - Copyright (c) 1997 Greg Leichner
# Normalized: r1:TDELIM( - );r2:TSWAP
#
DISCID=5a06b709
DTITLE=Various Artist - Tender Lovin' Country
DYEAR=1900
DGENRE=
TTITLE0=Rob Crosby - Love Will Bring Her Around
TTITLE1=T. Graham Brown - You Can't Take It With You
TTITLE2=Lee Greenwood - Don't Underestimate My Love For You
TTITLE3=John Anderson - I Just Came Home To Count The Memories
TTITLE4=Ray Kennedy - What A Way To Go
TTITLE5=Dan Seals - One Friend
TTITLE6=Johnny Lee - I'm Not Over You Yet
TTITLE7=Moe Bandy - I Just Can't Say No To You
TTITLE8=Skip Ewing - A Lighter Shade of Blue
EXTD=
EXTT0=
EXTT1=
EXTT2=
EXTT3=
EXTT4=
EXTT5=
EXTT6=
EXTT7=
EXTT8=
PLAYORDER=
